<svg xmlns="http://www.w3.org/2000/svg" width="150px" height="83px" viewBox="0 0 300 166" version="1.1">
  <path d=" M 0 0 L 128.6 0 C 118.3 2.2 108 5.2 99 11.1 C 79.6 23.2 66.8 45 65.5 67.8 C 55 70 44.8 74.4 37.3 82.3 C 33 86.3 30.2 91.4 27.4 96.4 C 25.4 100.1 21 100.8 17.6 102.6 C 8.3 107.2 2.5 116.7 0 126.5 L 0 0 Z"/>
  <path d=" M 128.6 0 L 145.4 0 C 159.5 2.1 173.2 7.5 184.1 16.9 C 192.3 23.6 198.5 32.4 203.2 41.8 C 209.1 39.3 215.1 36.7 221.4 35.4 C 235 32.8 249.4 34.2 262 40 C 277.9 47.2 290.7 61 296.6 77.4 C 297.9 81.1 299.1 84.8 300 88.6 L 300 111.4 C 296.9 125.7 290 139.3 279 149 C 269.2 158.2 256.4 163.3 243.3 166 L 104.4 166 C 127.7 148.4 151.1 130.9 174.4 113.4 C 179.3 109.7 184.4 106.2 189 102 C 184.1 104.3 179.5 107.1 174.9 109.8 C 149.3 124.6 123.7 139.4 98.2 154.2 C 91.7 158 85 161.3 79.1 166 L 26.6 166 C 19.7 163.7 12.9 160.3 8.3 154.7 C 4.2 150.1 1.7 144.3 0 138.5 L 0 126.5 C 2.5 116.7 8.3 107.2 17.6 102.6 C 21 100.8 25.4 100.1 27.4 96.4 C 30.2 91.4 33 86.3 37.3 82.3 C 44.8 74.4 55 70 65.5 67.8 C 66.8 45 79.6 23.2 99 11.1 C 108 5.2 118.3 2.2 128.6 0 Z" class="outline"/>
  <path d=" M 145.4 0 L 300 0 L 300 88.6 C 299.1 84.8 297.9 81.1 296.6 77.4 C 290.7 61 277.9 47.2 262 40 C 249.4 34.2 235 32.8 221.4 35.4 C 215.1 36.7 209.1 39.3 203.2 41.8 C 198.5 32.4 192.3 23.6 184.1 16.9 C 173.2 7.5 159.5 2.1 145.4 0 Z"/>
  <path d=" M 99.1 59.4 C 118.2 50.2 140.2 47.7 160.9 52 C 154.9 65.2 148.4 78.3 142.1 91.3 C 131 87.5 119 86.8 107.5 88.8 C 104.9 79 101.5 69.3 99.1 59.4 Z"/>
  <path d=" M 171.1 54.7 C 186.4 59.1 200.8 67.3 212 78.7 C 197.7 87.2 183.1 95.3 168.8 103.8 C 167.1 104.6 164.9 106.7 163.2 104.8 C 159.3 101.7 155.5 98.4 151.2 95.8 C 157.9 82.1 164.2 68.2 171.1 54.7 Z"/>
  <path d=" M 60.9 93.7 C 68.5 82.2 78.8 72.9 90 65 C 92.8 74 95.4 82.9 98 91.9 C 93 94.5 87.9 97 83.4 100.5 C 81 102.3 78.8 104.4 76 105.8 C 70.6 102.3 66 97.7 60.9 93.7 Z"/>
  <path d=" M 212.4 96.4 C 215.4 94.1 218.5 92 221.6 89.9 C 233.8 107.3 242.1 127.6 244.8 148.8 C 223.6 149 202.4 148.8 181.2 148.9 C 181 140.3 179.4 131.9 176.2 123.9 C 188.1 114.5 200.4 105.7 212.4 96.4 Z"/>
  <path d=" M 55.2 102.1 C 59.8 105.8 64.3 109.5 68.8 113.3 C 65.3 117.7 62 122.1 59 126.8 C 54.9 125.5 50.8 124.2 46.8 122.8 C 48.5 115.5 51.7 108.7 55.2 102.1 Z"/>
  <path d=" M 174.9 109.8 C 179.5 107.1 184.1 104.3 189 102 C 184.4 106.2 179.3 109.7 174.4 113.4 C 151.1 130.9 127.7 148.4 104.4 166 L 79.1 166 C 85 161.3 91.7 158 98.2 154.2 C 123.7 139.4 149.3 124.6 174.9 109.8 Z"/>
  <path d=" M 279 149 C 290 139.3 296.9 125.7 300 111.4 L 300 166 L 243.3 166 C 256.4 163.3 269.2 158.2 279 149 Z"/>
  <path d=" M 0 138.5 C 1.7 144.3 4.2 150.1 8.3 154.7 C 12.9 160.3 19.7 163.7 26.6 166 L 0 166 L 0 138.5 Z"/>
</svg>
